<svg width="144" height="104" viewBox="0 0 144 104" fill="none" xmlns="http://www.w3.org/2000/svg">
<g id="DAON_logo_white">
<path d="M70.4656 0.119941H33.1638C32.0244 0.119941 31.1172 1.15183 31.1248 2.15894C31.1324 3.16606 31.0924 13.3136 31.1248 20.3301C31.1572 27.3466 37.9615 34.783 45.2779 34.783H73.704C76.2228 34.783 76.0645 30.1015 73.704 30.1053C71.3436 30.1091 51.215 29.9854 45.5178 29.9854C39.8206 29.9854 35.9225 23.5086 35.9225 21.1448V4.79766H70.4656C72.7445 4.79766 73.0443 0.119941 70.4656 0.119941Z" fill="white"/>
<path d="M98.6518 0.119941C108.247 0.239883 140.272 0 140.272 0L143.51 4.79766H99.6114C91.7552 4.79766 83.3593 11.6945 83.3593 20.45V50.9152C83.3593 60.6306 98.5919 59.851 98.292 50.9152C97.9922 41.9793 90.7957 43.539 88.5768 43.539C86.3578 43.539 84.1989 39.7608 88.5768 38.6214C92.9546 37.4819 103.09 40.3605 103.09 50.6153C103.09 60.8701 93.2545 62.6094 93.2545 62.6094V69.6859H128.562C130.976 69.6859 130.856 74.4836 128.562 74.4836H1.67918L0 69.6859H88.5768V62.7293C81.7069 60.42 79.8304 57.5525 78.6216 50.7352V21.5895C78.6216 10.5551 89.0565 0 98.6518 0.119941Z" fill="white"/>
<path d="M70.2257 81.8003C70.2257 79.2216 65.488 79.1616 65.488 81.8003V89.5365C65.488 97.6925 71.5451 103.87 76.6426 103.87H115.863C118.442 103.87 118.502 99.1318 115.863 99.1318H76.6426C73.824 99.1318 70.2257 94.1543 70.2257 89.5365V81.8003Z" fill="white"/>
</g>
</svg>
