<svg width="160" height="160" viewBox="0 0 160 160" fill="none" xmlns="http://www.w3.org/2000/svg">
<g id="DAON_logo">
<circle id="Ellipse 6" cx="79.6411" cy="79.6411" r="79.6411" fill="black"/>
<g id="Vector 35">
<path d="M72.3845 29.9852H35.0828C33.9433 29.9852 33.0362 31.0171 33.0438 32.0242C33.0513 33.0313 33.0113 43.1789 33.0438 50.1953C33.0762 57.2118 39.8804 64.6483 47.1968 64.6483H75.623C78.1417 64.6483 77.9834 59.9668 75.623 59.9705C73.2625 59.9743 53.1339 59.8506 47.4367 59.8506C41.7395 59.8506 37.8414 53.3739 37.8414 51.0101V34.6629H72.3845C74.6634 34.6629 74.9633 29.9852 72.3845 29.9852Z" fill="white"/>
<path d="M100.571 29.9852C110.166 30.1051 142.19 29.8652 142.19 29.8652L145.429 34.6629H101.53C93.6741 34.6629 85.2783 41.5598 85.2783 50.3153V80.7804C85.2783 90.4959 100.511 89.7162 100.211 80.7804C99.9111 71.8445 92.7146 73.4042 90.4957 73.4042C88.2768 73.4042 86.1178 69.6261 90.4957 68.4866C94.8736 67.3472 105.009 70.2258 105.009 80.4805C105.009 90.7353 95.1734 92.4746 95.1734 92.4746V99.5511H130.481C132.895 99.5511 132.775 104.349 130.481 104.349H3.59813L1.91895 99.5511H90.4957V92.5945C83.6258 90.2852 81.7493 87.4177 80.5406 80.6005V51.4547C80.5406 40.4203 90.9755 29.8652 100.571 29.9852Z" fill="white"/>
<path d="M72.1447 111.666C72.1447 109.087 67.407 109.027 67.407 111.666V119.402C67.407 127.558 73.464 133.735 78.5615 133.735H117.782C120.361 133.735 120.421 128.997 117.782 128.997H78.5615C75.7429 128.997 72.1447 124.02 72.1447 119.402V111.666Z" fill="white"/>
</g>
</g>
</svg>
