<svg width="274" height="367" viewBox="0 0 274 367" fill="none" xmlns="http://www.w3.org/2000/svg">
<path id="fire" d="M196.842 2C109.063 35.724 72.1071 64.7286 71.0739 169.906C52.3948 154.169 47.7441 142.543 52.8869 115.375C-4.31979 211.093 -30.3999 264.226 60.9015 346.746C120.087 370.204 154.091 376.479 220.27 341.2C290.956 291.092 282.026 250.712 243.389 131.395C231.93 153.073 227.111 166.447 226.127 196.093C228.219 175.337 192.101 100.685 181.738 76.8643C171.374 53.0435 179.691 28.4883 196.842 2ZM220.27 63.0006C220.27 67.0057 214.465 78.0136 215.029 87.9553C215.474 95.7936 220.27 107.365 220.27 107.365C221.195 110.069 237.728 98.7193 232.6 87.9553C227.064 76.3368 220.27 58.9955 220.27 63.0006ZM65.2171 10.0102C65.2171 10.0102 54.3438 21.6281 60.9015 33.1164C67.4592 44.6048 66.3978 51.223 65.2171 63.0006C72.412 54.0214 77.1165 49.5925 76.006 33.1164C70.2555 25.0401 68.2362 19.7681 65.2171 10.0102ZM66.7587 222.896C44.7741 291.656 45.2427 318.243 72.3073 341.2C122.257 372.988 150.442 375.115 201.158 341.2C216.623 321.938 225.262 311.111 226.127 278.659C222.628 290.906 219.477 295.747 211.639 300.533C218.382 273.326 236.279 267.01 184.204 202.562C189.434 222.199 186.545 229.177 175.265 237.376C171.611 188.092 165.199 162.06 91.4191 138.481C103.549 161.906 107.674 174.793 96.6595 196.093C83.8801 216.162 80.9329 229.679 77.2394 254.629C78.4713 241.988 74.8049 235.105 66.7587 222.896ZM104.058 346.746C129.791 373.934 145.67 370.135 175.265 346.746C178.249 336.605 179.16 329.604 175.265 307.619L179.272 288.826C170.797 292.222 167.085 297.1 162.01 310.084C157.778 290.319 154.145 278.992 137.349 256.785C132.818 271.537 123.793 283.712 104.058 307.619C95.9058 327.541 98.1351 334.837 104.058 346.746Z" stroke="#FFF"/>
</svg>
