<svg width="54" height="91" viewBox="0 0 54 91" fill="none" xmlns="http://www.w3.org/2000/svg">
<path d="M1 90.5V17L37.5 1V17H53.5V90.5H1Z" fill="#2C6D58"/>
<path d="M1 17V90.5H53.5V17H37.5M1 17L37.5 1V17M1 17H37.5" stroke="black"/>
<path fill-rule="evenodd" clip-rule="evenodd" d="M31.1155 59.3853C29.8142 59.7849 28.4322 60 27 60C19.268 60 13 53.732 13 46C13 38.7166 18.5618 32.7322 25.67 32.0624V44.46C25.7167 44.5067 25.866 44.6 26.09 44.6C26.314 44.6 26.4633 44.5067 26.51 44.46V32.0084C26.6726 32.0028 26.836 32 27 32C34.732 32 41 38.268 41 46C41 48.2104 40.4877 50.3011 39.5755 52.16H24.27C23.99 52.1367 23.43 52.188 23.43 52.58C23.43 52.972 23.8967 53.0233 24.13 53H31.1155V59.3853ZM32.11 59.0381C35.0507 57.8847 37.5063 55.7651 39.0863 53.07H32.11V59.0381ZM23.85 39.35C23.8113 38.1515 22.8085 37.2113 21.61 37.25C20.4508 37.2874 19.5474 38.1908 19.51 39.35C19.4713 40.5485 20.4115 41.5513 21.61 41.59C22.8465 41.6299 23.8899 40.5865 23.85 39.35ZM19.37 44.74V43.13C19.37 43.0133 19.468 42.78 19.86 42.78C20.252 42.78 20.3033 43.1533 20.28 43.34V44.67C20.3033 45.1133 20.756 45.986 22.38 45.93H34.77C34.9333 45.9067 35.26 45.972 35.26 46.42C35.26 46.868 34.9333 46.98 34.77 46.98H31.76C31.83 47.75 32.474 49.318 34.49 49.43C34.7467 49.4767 35.218 49.668 35.05 50.06C34.882 50.452 34.3733 50.5033 34.14 50.48C33.23 50.27 31.368 49.57 31.2 48.45C30.6867 49.2433 29.38 50.41 27.91 50.55C27.6767 50.55 27.21 50.438 27.21 49.99C27.21 49.542 27.77 49.43 28.05 49.43C28.89 49.36 30.542 48.828 30.71 46.98H21.61C20.7 46.91 19.426 46.308 19.37 44.74Z" fill="black"/>
<path d="M21.61 37.95C22.3832 37.95 23.01 38.5768 23.01 39.35C23.01 40.1232 22.3832 40.75 21.61 40.75C20.8368 40.75 20.21 40.1232 20.21 39.35C20.21 38.5768 20.8368 37.95 21.61 37.95Z" fill="black"/>
</svg>
