<svg width="200" height="200" viewBox="0 0 200 200" fill="none" xmlns="http://www.w3.org/2000/svg">
<path fill-rule="evenodd" clip-rule="evenodd" d="M129.396 195.609C120.102 198.464 110.23 200 100 200C44.7715 200 0 155.228 0 100C0 47.9756 39.7274 5.23006 90.5 0.445372V89C90.8333 89.3333 91.9 90 93.5 90C95.1 90 96.1667 89.3333 96.5 89V0.0601046C97.6617 0.020144 98.8285 0 100 0C155.228 0 200 44.7715 200 100C200 115.788 196.341 130.722 189.825 144H80.5C78.5 143.833 74.5 144.2 74.5 147C74.5 149.8 77.8333 150.167 79.5 150H129.396V195.609ZM136.5 193.13C157.505 184.891 175.045 169.751 186.331 150.5H136.5V193.13ZM77.5 52.5C77.2239 43.9396 70.0604 37.2239 61.5 37.5C53.22 37.7671 46.7671 44.22 46.5 52.5C46.2239 61.0604 52.9396 68.2239 61.5 68.5C70.332 68.7849 77.7849 61.332 77.5 52.5ZM45.5 91V79.5C45.5 78.6667 46.2 77 49 77C51.8 77 52.1667 79.6667 52 81V90.5C52.1667 93.6667 55.4 99.9 67 99.5H155.5C156.667 99.3333 159 99.8 159 103C159 106.2 156.667 107 155.5 107H134C134.5 112.5 139.1 123.7 153.5 124.5C155.333 124.833 158.7 126.2 157.5 129C156.3 131.8 152.667 132.167 151 132C144.5 130.5 131.2 125.5 130 117.5C126.333 123.167 117 131.5 106.5 132.5C104.833 132.5 101.5 131.7 101.5 128.5C101.5 125.3 105.5 124.5 107.5 124.5C113.5 124 125.3 120.2 126.5 107H61.5C55 106.5 45.9 102.2 45.5 91Z" fill="white"/>
<path d="M61.5 42.5C67.0228 42.5 71.5 46.9772 71.5 52.5C71.5 58.0228 67.0228 62.5 61.5 62.5C55.9772 62.5 51.5 58.0228 51.5 52.5C51.5 46.9772 55.9772 42.5 61.5 42.5Z" fill="white"/>
</svg>
