<svg width="200" height="200" viewBox="0 0 200 200" fill="none" xmlns="http://www.w3.org/2000/svg">
<path d="M186.657 150.409H136.746V192.216C144.048 189.448 151.753 185.677 159.188 180.531L159.19 180.53C168.588 173.742 178.737 163.904 186.657 150.409Z" fill="black"/>
<path fill-rule="evenodd" clip-rule="evenodd" d="M100.524 199.927L100.519 199.928L100.461 199.931C100.481 199.93 100.503 199.929 100.524 199.927ZM159.19 180.53C168.588 173.742 178.737 163.904 186.657 150.409C179.191 163.716 169.446 173.432 159.188 180.531L159.19 180.53Z" fill="black"/>
<path fill-rule="evenodd" clip-rule="evenodd" d="M99.6451 200C24.7471 197.171 2.00754 135.448 0 104.94C0.770773 31.0158 54.8278 5.72115 89.4521 0.881085V87.3674C89.5186 88.3436 90.3771 90.2962 93.2786 90.2962C96.1801 90.2962 96.839 88.3436 96.8057 87.3674V0.130215C97.7767 0.0694617 98.7239 0.0263359 99.6451 0C197.69 7.07682 199.523 88.0921 199.853 102.693C199.886 104.145 199.904 104.94 200 104.94C198.58 120.149 195.045 132.916 190.108 143.634H77.3957C76.379 143.877 74.3567 144.876 74.4011 146.928C74.4454 148.979 76.416 150.103 77.3957 150.409H129.326V194.748C115.198 199.055 103.707 199.738 100.524 199.927L100.519 199.928L100.461 199.931C99.9269 199.963 99.6451 199.98 99.6451 200ZM157.143 107.14H133.696C134.42 112.839 139.592 124.335 154.481 124.724C154.45 124.724 154.49 124.737 154.584 124.766C155.221 124.967 158.306 125.94 157.764 128.879C157.267 131.576 155.368 132.398 154.481 132.471C147.981 132.21 133.969 128.833 129.913 117.418C129.913 117.529 120.785 134.151 104.769 132.471C104.658 132.471 101.719 131.687 101.386 128.879C101.12 126.634 103.531 125.173 104.769 124.724C111.091 124.989 124.295 121.844 126.531 107.14H61.3576C56.1705 105.699 45.6832 100.458 45.2307 91.0146V79.8851C45.7187 78.7246 47.1917 76.5385 49.1792 77.0778C51.1668 77.6172 51.9595 79.174 52.1074 79.8851V90.2962C52.8542 93.3098 56.6526 99.4032 65.8718 99.6684C75.091 99.9337 130.56 99.779 157.143 99.6684C157.879 99.8637 159.346 100.853 159.328 103.249C159.31 105.645 157.864 106.841 157.143 107.14ZM72.4501 37.4337C65.4941 30.0879 53.4523 30.0879 46.4963 37.4337C39.9326 44.3651 39.9326 54.9055 46.4963 61.8369C53.4523 69.1827 65.4941 69.1827 72.4501 61.8369C79.0137 54.9055 79.0137 44.3651 72.4501 37.4337Z" fill="black"/>
<path d="M51 42.5C55.195 37.4218 63.6716 37.4218 67.8667 42.5C71.3321 46.695 71.3321 52.2383 67.8667 56.4333C63.6716 61.5115 55.195 61.5115 51 56.4333C47.5345 52.2383 47.5345 46.695 51 42.5Z" fill="black"/>
</svg>
