<svg width="200" height="200" viewBox="0 0 200 200" fill="none" xmlns="http://www.w3.org/2000/svg">
<path fill-rule="evenodd" clip-rule="evenodd" d="M100.524 199.927L100.519 199.928L100.461 199.931C100.481 199.93 100.503 199.929 100.524 199.927ZM159.19 180.53C161.115 179.139 163.072 177.621 165.035 175.969C172.653 169.558 180.36 161.14 186.657 150.409C180.39 161.089 173.031 169.277 165.035 175.969C163.12 177.571 161.169 179.087 159.188 180.531L159.19 180.53Z" fill="black"/>
<path fill-rule="evenodd" clip-rule="evenodd" d="M159.188 180.531L159.176 180.54L159.106 180.588C159.075 180.609 159.045 180.63 159.014 180.652C159.072 180.612 159.13 180.571 159.188 180.531Z" fill="black"/>
<path fill-rule="evenodd" clip-rule="evenodd" d="M42.9963 37.4337C49.9523 30.0879 61.9941 30.0879 68.9501 37.4337C75.5138 44.3651 75.5138 54.9055 68.9501 61.8369C61.9941 69.1827 49.9523 69.1827 42.9963 61.8369C36.4326 54.9055 36.4326 44.3651 42.9963 37.4337ZM64.3667 42.0333C60.1716 36.9551 51.695 36.9551 47.5 42.0333C44.0345 46.2284 44.0345 51.7716 47.5 55.9667C51.695 61.0449 60.1716 61.0449 64.3667 55.9667C67.8321 51.7716 67.8321 46.2284 64.3667 42.0333Z" fill="white"/>
<path d="M96.8057 87.3674V0.130215C94.4812 0.275653 92.0201 0.522112 89.4521 0.881085V87.3674C89.5186 88.3436 90.3771 90.2962 93.2786 90.2962C96.1801 90.2962 96.8389 88.3436 96.8057 87.3674Z" fill="white"/>
<path d="M157.143 107.14H133.696C134.42 112.839 139.592 124.335 154.481 124.724C154.45 124.724 154.49 124.737 154.584 124.766C155.221 124.967 158.306 125.94 157.764 128.879C157.267 131.576 155.368 132.398 154.481 132.471C147.981 132.21 133.968 128.833 129.913 117.418C129.913 117.529 120.785 134.151 104.769 132.471C104.658 132.471 101.719 131.687 101.386 128.879C101.12 126.633 103.531 125.173 104.769 124.724C111.091 124.989 124.295 121.843 126.531 107.14H61.3576C56.1705 105.699 45.6832 100.458 45.2307 91.0146V79.8851C45.7187 78.7246 47.1917 76.5385 49.1792 77.0778C51.1668 77.6172 51.9595 79.174 52.1074 79.8851V90.2962C52.8542 93.3098 56.6526 99.4032 65.8718 99.6684C75.091 99.9337 130.56 99.779 157.143 99.6684C157.879 99.8637 159.346 100.853 159.328 103.249C159.31 105.645 157.864 106.841 157.143 107.14Z" fill="white"/>
<path d="M136.746 150.409H186.657C187.87 148.247 189.023 145.99 190.108 143.634H77.3957C76.379 143.877 74.3567 144.876 74.4011 146.927C74.4454 148.979 76.416 150.103 77.3957 150.409H129.326V194.748C131.732 194.014 134.215 193.175 136.746 192.216V150.409Z" fill="white"/>
</svg>
