<svg width="30" height="50" viewBox="0 0 30 50" fill="none" xmlns="http://www.w3.org/2000/svg">
<path d="M1 48.5264V9.49633L20.3823 1V9.49633H28.8786V48.5264H1Z" fill="#2C6D58"/>
<path d="M1 9.49633V48.5264H28.8786V9.49633H20.3823M1 9.49633L20.3823 1V9.49633M1 9.49633H20.3823" stroke="black"/>
<path fill-rule="evenodd" clip-rule="evenodd" d="M16.9918 32.0038C16.3008 32.216 15.5669 32.3303 14.8064 32.3303C10.7005 32.3303 7.37207 29.0018 7.37207 24.896C7.37207 21.0283 10.3255 17.8505 14.1001 17.4948V24.0782C14.1249 24.103 14.2042 24.1525 14.3231 24.1525C14.4421 24.1525 14.5214 24.103 14.5462 24.0782V17.4661C14.6325 17.4632 14.7193 17.4617 14.8064 17.4617C18.9122 17.4617 22.2407 20.7901 22.2407 24.896C22.2407 26.0697 21.9686 27.18 21.4842 28.1671H13.3567C13.208 28.1547 12.9106 28.1819 12.9106 28.3901C12.9106 28.5982 13.1584 28.6255 13.2823 28.6131H16.9918V32.0038ZM17.5199 31.8195C19.0815 31.207 20.3855 30.0814 21.2244 28.6503H17.5199V31.8195ZM13.1336 21.3647C13.1131 20.7283 12.5806 20.229 11.9442 20.2495C11.3286 20.2694 10.8489 20.7491 10.829 21.3647C10.8085 22.0011 11.3078 22.5336 11.9442 22.5542C12.6008 22.5753 13.1548 22.0213 13.1336 21.3647ZM10.7547 24.2269V23.3719C10.7547 23.31 10.8067 23.1861 11.0149 23.1861C11.223 23.1861 11.2503 23.3843 11.2379 23.4834V24.1897C11.2503 24.4251 11.4907 24.8885 12.353 24.8588H18.9324C19.0191 24.8464 19.1926 24.8811 19.1926 25.119C19.1926 25.3569 19.0191 25.4164 18.9324 25.4164H17.334C17.3712 25.8252 17.7132 26.6579 18.7837 26.7174C18.92 26.7421 19.1703 26.8437 19.0811 27.0519C18.9919 27.2601 18.7218 27.2873 18.5979 27.2749C18.1146 27.1634 17.1259 26.7917 17.0367 26.197C16.7641 26.6182 16.0702 27.2378 15.2896 27.3121C15.1657 27.3121 14.9179 27.2526 14.9179 27.0147C14.9179 26.7768 15.2152 26.7174 15.3639 26.7174C15.81 26.6802 16.6872 26.3977 16.7764 25.4164H11.9442C11.4609 25.3792 10.7844 25.0595 10.7547 24.2269Z" fill="white"/>
<path d="M11.9442 20.6212C12.3547 20.6212 12.6876 20.9541 12.6876 21.3647C12.6876 21.7753 12.3547 22.1081 11.9442 22.1081C11.5336 22.1081 11.2007 21.7753 11.2007 21.3647C11.2007 20.9541 11.5336 20.6212 11.9442 20.6212Z" fill="white"/>
</svg>
