<svg width="200" height="200" viewBox="0 0 200 200" fill="none" xmlns="http://www.w3.org/2000/svg">
<path d="M186.657 150.409H136.746V192.216C144.048 189.448 151.753 185.677 159.188 180.531L159.19 180.53C168.588 173.742 178.737 163.904 186.657 150.409Z" fill="white"/>
<path fill-rule="evenodd" clip-rule="evenodd" d="M100.524 199.927L100.519 199.928L100.461 199.931C100.481 199.93 100.503 199.929 100.524 199.927ZM159.19 180.53C168.588 173.742 178.737 163.904 186.657 150.409C179.191 163.716 169.446 173.432 159.188 180.531L159.19 180.53Z" fill="white"/>
<path d="M51 42.5C55.195 37.4218 63.6716 37.4218 67.8667 42.5C71.3321 46.695 71.3321 52.2383 67.8667 56.4333C63.6716 61.5115 55.195 61.5115 51 56.4333C47.5345 52.2383 47.5345 46.695 51 42.5Z" fill="white"/>
<path fill-rule="evenodd" clip-rule="evenodd" d="M0 104.94C2.00754 135.448 24.7471 197.171 99.6451 200C99.6451 199.98 99.9269 199.963 100.461 199.931L100.519 199.928L100.524 199.927C103.707 199.738 115.198 199.055 129.326 194.748V150.409H77.3957C76.416 150.103 74.4454 148.979 74.4011 146.928C74.3567 144.876 76.379 143.877 77.3957 143.634H190.108C195.045 132.916 198.58 120.149 200 104.94C199.904 104.94 199.886 104.145 199.853 102.693C199.523 88.0921 197.69 7.07682 99.6451 0C98.7239 0.0263359 97.7767 0.0694617 96.8057 0.130215V87.3674C96.839 88.3436 96.1801 90.2962 93.2786 90.2962C90.3771 90.2962 89.5186 88.3436 89.4521 87.3674V0.881085C54.8278 5.72115 0.770773 31.0158 0 104.94ZM133.696 107.14H157.143C157.864 106.841 159.31 105.645 159.328 103.249C159.346 100.853 157.879 99.8637 157.143 99.6684C130.56 99.779 75.091 99.9337 65.8718 99.6684C56.6526 99.4032 52.8542 93.3098 52.1074 90.2962V79.8851C51.9595 79.174 51.1668 77.6172 49.1792 77.0778C47.1917 76.5385 45.7187 78.7246 45.2307 79.8851V91.0146C45.6832 100.458 56.1705 105.699 61.3576 107.14H126.531C124.295 121.844 111.091 124.989 104.769 124.724C103.531 125.173 101.12 126.634 101.386 128.879C101.719 131.687 104.658 132.471 104.769 132.471C120.785 134.151 129.913 117.529 129.913 117.418C133.969 128.833 147.981 132.21 154.481 132.471C155.368 132.398 157.267 131.576 157.764 128.879C158.306 125.94 155.221 124.967 154.584 124.766C154.49 124.737 154.45 124.724 154.481 124.724C139.592 124.335 134.42 112.839 133.696 107.14ZM72.4501 37.4337C65.4941 30.0879 53.4523 30.0879 46.4963 37.4337C39.9326 44.3651 39.9326 54.9055 46.4963 61.8369C53.4523 69.1827 65.4941 69.1827 72.4501 61.8369C79.0137 54.9055 79.0137 44.3651 72.4501 37.4337Z" fill="white"/>
</svg>
