<svg width="1722" height="785" viewBox="0 0 1722 785" fill="none" xmlns="http://www.w3.org/2000/svg">
<path d="M0.719507 206.061L50.3868 163.218L73.2306 155.497L80.4723 138.064C99.421 127.384 137.36 101.887 137.528 85.3344C137.696 68.7821 150.739 72.7381 157.24 76.7851L183.767 92.9787L225.059 46.4524L243.986 37.8949C242.211 32.3053 241.198 18.6058 251.349 8.52436C272.699 8.74668 267.42 23.548 262.112 30.9208C267.791 38.6734 287.62 54.7442 321.509 57.0072C334.165 47.5885 356.047 57.3668 362.374 52.6575C367.437 48.89 370.855 42.1342 371.931 39.2272C366.714 37.5811 359.43 33.3668 372.028 29.6778C385.855 28.5484 379.461 19.1436 374.536 14.5823C380.3 13.8465 393.089 11.9104 398.132 10.0528C403.175 8.19525 419.595 9.48045 427.175 10.3553C434.333 1.14464 452.441 3.22844 463.77 0.799628C476.329 0.930406 509.526 36.2899 506.19 10.0528L536.136 25.8155C546.345 25.3913 567.557 23.7551 570.729 20.6047C573.901 17.4542 578.816 23.0765 580.877 26.2814L568.165 41.2706L573.426 64.4056L586.081 54.987L585.896 73.2901L604.734 73.4862C602.094 75.8463 597.576 82.6438 600.632 90.9527C594.301 95.9803 596.36 99.3975 598.181 100.478L611.46 106.983C613.492 113.106 616.891 128.846 614.237 142.826C626.693 153.143 640.812 154.245 646.315 153.506L683.855 167.427L699.352 187.485L712.663 190.807L712.438 213.089L698.981 224.091L701.142 243.215L728.389 265.783L770.703 273.386L787.819 288.686L793.136 306.25L828.345 317.759L833.751 326.57L859.96 296.6L898.643 352.714L869.229 389.017L872.135 412.128L865.791 418.429L865.662 431.162L842.794 441.27L826.765 473.733L815.744 476.802L806.203 488.641L815.574 493.514C807.709 495.023 791.326 500.424 788.717 509.947C786.109 519.471 782.797 526.068 781.467 528.177C782.118 541.448 784.817 569.438 790.411 575.226C796.004 581.015 800.516 585.147 802.072 586.49C811.006 582.869 829.382 571.812 831.421 556.552C827.09 550.14 828.111 547.498 829.163 546.978L837.012 547.06C835.135 551.551 833.418 560.871 841.569 562.229C856.852 541.377 861.693 538.828 862.203 540.16L886.748 596.922L913.138 626.644L927.267 626.791L927.444 609.284L916.001 576.534C929.682 594.982 956.237 634.256 953 643.772C1006.41 641.145 1021.2 653.768 1021.91 660.407C1026.6 662.579 1035.93 671.696 1035.74 690.795C1049.07 676.289 1054.9 684.892 1056.14 691.007L1064.91 678.364L1062.73 660.833L1072.04 672.072L1077.98 705.56C1087.34 710.963 1107.46 724.172 1113.02 733.78C1109.42 717.189 1109.13 704.558 1109.43 700.317C1104.9 682.495 1094.13 645.242 1087.29 638.804C1091.82 625.48 1089.3 621.05 1087.47 620.501L1063.94 618.664C1056.4 613.81 1041.98 601.085 1044.62 589.016C1043.36 589.002 1018.11 570.7 1005.64 561.55L988.091 512.023L986.373 449.132L998.198 521.679C1006.43 536.09 1025.07 565.732 1033.83 569.006C1042.59 572.281 1053.11 577.431 1057.27 579.597L1063.36 598.761L1084.55 598.982L1090.93 589.498L1091.04 578.357L1045.5 502.275L1045.99 453.732C1043.69 447.872 1040.52 435.529 1046.2 433.041C1037.54 419.581 1033.3 414.602 1032.26 413.795L1055.41 375.835L1041.28 375.688C1043.69 370.407 1046.64 358.712 1039.15 354.177C1072.43 354.523 1053.17 338.936 1039.38 331.099L1037.13 320.729L1047.33 320.836L1066.78 338.547L1064.6 321.015C1057.4 309.002 1040.48 284.472 1030.45 282.458C1038.12 269.167 1039.97 273.272 1039.93 276.986L1064.79 302.712L1087.66 291.808C1079.12 283.23 1059.2 265.726 1047.91 264.335C1051.78 253.551 1055.3 257.779 1056.57 261.241C1061.26 263.413 1071.27 267.125 1073.81 264.604C1076.35 262.084 1077.43 268.356 1077.66 271.807C1079.32 262.805 1079.23 241.421 1065.55 227.908C1054.87 227.797 1049.6 226.151 1048.3 225.341L1040.65 206.161L1028.14 200.459L1018.85 188.424L1011.04 184.364C1018.67 179.668 1039.37 177.496 1061.05 206.373C1086.85 202.185 1092.81 197.419 1092.56 195.559L1061.47 164.992L1074.76 170.702L1086.41 182.761L1092.69 182.826C1089.59 179.345 1082.94 169.513 1081.17 158.034C1094.96 160.725 1099.47 159.286 1100.01 158.231L1100.06 152.66L1113.47 146.433L1102.63 131.994L1089.33 127.08C1098.01 123.457 1116.59 117.814 1121.55 124.232C1126.27 154.206 1130.58 162.263 1132.15 162.545L1140.92 149.106L1136.43 127.571C1135.75 116.952 1136.91 95.4228 1146.97 94.2541C1157.03 93.0855 1153.03 116.071 1149.77 127.71L1156.75 136.537C1171.23 128.199 1201.15 108.666 1205.03 97.2463C1193.25 82.4796 1191.43 70.841 1192 66.8675L1196.8 57.3671L1232.2 50.5729L1254.35 33.2944C1251.62 44.9387 1243.31 69.7894 1231.94 76.038C1231.78 91.3171 1235.97 91.4668 1238.08 89.6318L1287.23 42.3914L1269.59 78.8177L1286.67 98.0964L1257.7 89.8361C1246.65 95.8227 1224.69 109.548 1225.25 116.558C1225.81 123.567 1231.16 127.496 1233.76 128.584L1273.79 129.001L1286.26 137.886L1191.25 140.08C1187.53 145.877 1177.72 158.562 1168.26 162.921C1166.26 174.36 1160.96 185.66 1158.56 189.879L1135.32 236.594C1139.75 239.027 1148.58 245.486 1148.52 251.853C1148.45 258.219 1149.82 278.395 1150.51 287.687L1160.83 275.857L1167.41 246.478L1177.66 242.606L1173.67 248.931L1190.15 249.103L1203.61 237.305L1182.92 265.741L1182.81 276.086L1170.2 280.73C1173.28 286.863 1178.18 299.595 1173.13 301.453C1168.09 303.31 1155.8 307.905 1150.28 309.969L1119.85 292.143C1110.54 307.168 1094.84 342.66 1106.55 364.429C1112.88 360.038 1112.43 353.083 1111.41 350.154L1141.49 325L1144.67 321.849L1160.28 330.766L1160.1 348.273L1166.35 350.726L1169.61 339.618L1176.62 344.466L1176.51 355.607L1189.03 359.717L1172.45 369.095L1163.63 387.308L1172.16 397.743L1186.39 387.545L1181.47 408.186L1159.53 404.774C1156.17 400.495 1149.46 390.98 1149.5 387.161C1149.54 383.341 1139.15 375.911 1133.95 372.673C1123.69 377.607 1104.64 398.791 1110.46 444.057C1121.86 433.988 1120.6 424.531 1118.54 421.061L1128.95 401.272L1128.71 424.35L1146.94 407.827L1153.93 415.062L1149.12 424.563L1156 442.939L1168.69 430.338L1168.54 444.662L1185.81 444.841L1171.52 460.61L1183.25 465.507L1193.5 460.839L1197.28 475.204L1213.69 482.538L1230.25 475.547L1236.67 461.289L1240.6 461.329L1233.25 489.108L1201.02 493.548L1175.23 482.137L1162.69 479.619L1128.2 474.485L1132.78 488.062L1130.25 505.545L1145.99 500.934L1153.14 493.049L1164.83 501.13C1160.62 503.208 1153.46 508.015 1158.45 510.614C1163.45 513.213 1152.11 517.445 1145.81 519.237L1129.87 542.947L1119.76 533.291L1114.17 542.783L1121.94 550.027C1128.07 565.743 1142.64 599.428 1151.97 608.438C1146.52 588.644 1149.88 581.622 1152.25 580.586C1161.31 590.761 1179.87 613.186 1181.67 621.482C1189.81 623.476 1203.7 642.138 1209.63 651.22C1214.66 644.64 1222.25 629.226 1212.3 620.209C1230.76 594.933 1237.98 590.233 1239.28 591.043L1239.12 606.958L1226.5 612.398C1231.13 620.405 1239.75 637.686 1237.19 642.752C1248.12 617.398 1258.81 601.062 1262.78 596.063C1267.04 589.209 1275.71 575.505 1276.33 575.511C1277.12 575.519 1288.24 562.901 1259.27 632.636C1281.72 648.151 1286.27 653.61 1285.74 654.4C1272.62 657.978 1246.51 667.521 1247.05 677.077C1245.67 689.16 1249.48 695.408 1251.55 697.021L1258.7 689.137L1290.9 687.88L1298.69 693.533C1289.76 696.358 1273.14 705.046 1278.04 717.194C1294.37 717.364 1307.4 711.663 1311.88 708.792C1304.98 718.535 1290.54 738.176 1288.03 738.786C1273.58 739.273 1265.62 755.266 1263.44 763.202C1262.89 765.849 1264.64 769.263 1276.02 761.741C1272.71 778.261 1270.3 783.436 1269.51 783.958L1281.29 784.081C1283.69 779.33 1294.15 769.571 1316.77 768.533C1331.2 769.956 1343.15 773.052 1347.33 774.422C1349.47 769.139 1357.54 758.293 1372.62 757.176C1391.47 756.099 1427.11 751.377 1442.57 749.15C1445.53 740.692 1451.16 722.817 1449.94 718.984C1462.62 707.655 1471.52 707.005 1474.39 708.096L1489.8 658.913L1508 644.776L1507.89 655.122L1518.1 655.228L1542.91 608.53L1539.9 595.765L1529.71 594.067L1529.85 579.743L1516.59 571.646L1524.47 568.544L1539.9 550.027L1721.35 550.027" stroke="#E5D679" stroke-opacity="0.6"/>
</svg>
