<svg width="236" height="155" viewBox="0 0 236 155" fill="none" xmlns="http://www.w3.org/2000/svg">
<path d="M1 43.9185L1 1L196.658 1L200.289 105.206H235.063C235.063 105.206 237.128 138.287 225.147 142.459C221.212 143.83 218.603 141.063 214.673 142.459C209.232 144.393 209.025 153.528 203.361 153.618C199.239 153.683 193.865 147.953 193.865 147.953C193.865 147.953 198.327 127.475 191.211 124.605C178.343 119.416 172.936 113.083 175.29 91.8155C176.035 85.0903 164.333 85.4854 165.794 78.94C167.165 72.7927 174.704 77.5947 178.083 72.7597C184.303 63.8606 175.826 61.1065 176.426 49.3972C176.989 38.4133 176.966 22.2876 179.899 17.824C182.832 13.3605 166.106 36.8317 161.325 51.6438C156.949 65.1991 165.794 68.9829 155.878 88.382C151.661 96.6321 161.325 112.416 161.325 112.416C163.07 121.065 165.794 119.112 165.794 134.562C165.794 150.013 155.04 126.092 147.219 124.605C142.53 123.714 135.069 124.605 135.069 124.605C135.069 124.605 133.632 111.437 129.204 112.416C126.355 113.047 126.904 117.922 124.176 119.112C119.732 121.049 116.804 116.094 113.702 111.73C104.68 99.0357 141.104 86.434 131.438 74.4765C129.091 71.5727 126.606 71.7816 124.176 68.9829C120.995 65.3193 122.178 59.7819 118.311 57.3091C114.827 55.0814 111.714 59.5958 108.256 57.3091C106.048 55.8491 104.166 54.6901 103.787 51.6438C103.331 47.9845 107.813 47.5803 108.256 43.9185C109.17 36.35 96.1423 41.7812 94.29 34.4764C93.4947 31.3402 94.836 29.2802 94.29 26.0644C93.301 20.2397 91.427 16.7468 87.4469 13.3605C81.3479 8.17156 75.7007 11.418 68.4537 13.3605C64.2742 14.4808 62.3894 18.1352 58.1192 17.824C54.4589 17.5574 53.0136 14.4739 49.4605 13.3605C43.4886 11.4893 36.3518 10.1425 33.6794 13.3605L26.8363 21.6009C26.8363 21.6009 21.4282 23.9788 18.1776 26.0644C12.5683 29.6633 9.38039 32.067 5.05001 37.7382C3.32455 39.998 1 43.9185 1 43.9185Z" stroke="#2C6D58"/>
</svg>
