<svg width="326" height="210" viewBox="0 0 326 210" fill="none" xmlns="http://www.w3.org/2000/svg">
<g id="pig__img">
<g id="Vector 1">
<path d="M2.26252 64.9474C4.96449 53.7922 6.66776 46.9526 13.5013 37.9123C20.5966 28.5258 26.9699 25.2788 37.1416 19.7544C50.0147 12.7628 58.5543 11.3241 72.7789 8.92778L73.1833 8.85965C92.1573 5.66261 103.282 6.80598 122.401 8.85965C145.263 11.3152 179.758 22.5789 179.758 22.5789H204.949L254.167 12.8947L271.994 2C285.671 11.741 290.298 18.56 296.022 31.8596L286.194 36.2449C289.659 35.2765 292.77 35.1958 293.696 37.5088C296.796 45.2433 322.762 47.193 322.762 47.193C322.762 47.193 326.502 61.2799 324.312 74.2281H312.686L282.845 99.2456C263.139 110.886 250.772 113.848 226.651 113.772C202.53 113.696 209.347 128.325 199.911 140C188.746 153.812 179.758 165.825 179.758 165.825V209H166.582C158.046 189.126 158.831 147.667 140.616 153.316C122.401 158.965 88.2975 153.316 59.6192 153.316C44.6123 153.316 34.7493 167.568 34.0412 183.175C33.5423 194.171 44.8925 209 44.8925 209H28.228C28.228 209 16.4664 186.562 16.9892 171.07C17.2947 162.017 20.8991 157.456 22.0273 148.474C26.211 115.163 -5.6276 97.5219 2.26252 64.9474Z" fill="#2C6D58"/>
<path d="M254.167 12.8947L204.949 22.5789H179.758C179.758 22.5789 145.263 11.3152 122.401 8.85965C103.282 6.80598 92.1573 5.66261 73.1833 8.85965C58.7152 11.2975 50.1362 12.6967 37.1416 19.7544C26.9699 25.2788 20.5966 28.5258 13.5013 37.9123C6.66776 46.9526 4.96449 53.7922 2.26252 64.9474C-5.6276 97.5219 26.211 115.163 22.0273 148.474C20.8991 157.456 17.2947 162.017 16.9892 171.07C16.4664 186.562 28.228 209 28.228 209H44.8925C44.8925 209 33.5423 194.171 34.0412 183.175C34.7493 167.568 44.6123 153.316 59.6192 153.316C88.2975 153.316 122.401 158.965 140.616 153.316C158.831 147.667 158.046 189.126 166.582 209H179.758V165.825C179.758 165.825 188.746 153.812 199.911 140C209.347 128.325 202.53 113.696 226.651 113.772C250.772 113.848 263.139 110.886 282.845 99.2456L312.686 74.2281H324.312C326.502 61.2799 322.762 47.193 322.762 47.193C322.762 47.193 296.796 45.2433 293.696 37.5088C291.301 31.5303 274.319 41.5439 274.319 41.5439L296.022 31.8596C290.298 18.56 285.671 11.741 271.994 2L254.167 12.8947ZM254.167 12.8947C242.117 19.3179 239.962 24.8346 237.115 35.0877" stroke="black" stroke-width="2"/>
</g>
<path id="Vector 2" d="M183.146 161.789L200.586 139.193C199.693 166.633 202.419 179.923 211.439 200.93H200.586C192.317 187.861 188.187 179.749 183.146 161.789Z" fill="#2C6D58" stroke="black" stroke-width="2" stroke-linecap="round"/>
<path id="Vector 3" d="M50.9931 200.93C45.9987 187.693 38.2041 167.439 38.2041 167.439C46.9348 154.934 52.4214 153.153 68.4326 153.719C68.4326 153.719 56.4176 164.853 55.2561 174.702C53.9647 185.651 65.3323 200.93 65.3323 200.93H50.9931Z" fill="#2C6D58" stroke="black" stroke-width="2"/>
</g>
</svg>
