<svg width="388" height="330" viewBox="0 0 388 330" fill="none" xmlns="http://www.w3.org/2000/svg">
<path d="M243.509 212.677L287.789 150.444C283.203 175.528 363.468 232.84 377.871 221.929L325.366 277.636C325.366 277.636 320.73 277.048 318.733 278.755C316.138 280.976 317.596 287.428 317.596 287.428L286.397 316.287C253.082 300.979 237.596 287.881 216.115 256.046L235.739 222.469C235.739 222.469 240.935 223.841 243.155 221.971C245.934 219.632 243.509 212.677 243.509 212.677Z" stroke="#2C6D58"/>
<path d="M377.871 221.929C376.761 223.328 374.429 223.871 370.926 223.425C367.464 222.985 363.042 221.599 358.001 219.404C347.927 215.018 335.484 207.442 323.506 197.936C311.527 188.431 301.323 178.035 294.762 169.22C291.48 164.81 289.126 160.818 287.911 157.547C286.68 154.237 286.679 151.842 287.789 150.444C288.897 149.047 291.207 148.526 294.681 149.009C298.113 149.485 302.496 150.919 307.499 153.162C317.496 157.647 329.863 165.321 341.844 174.828C353.824 184.336 364.107 194.635 370.746 203.353C374.068 207.715 376.459 211.658 377.703 214.892C378.962 218.165 378.979 220.533 377.871 221.929Z" stroke="#2C6D58"/>
<path d="M226.351 254.728L243.726 228.837C266.301 256.287 279.992 267.268 308.04 283.375L282.416 305.509C269.405 298.064 259.858 291.524 251.334 283.776C242.808 276.026 235.29 267.053 226.351 254.728Z" stroke="#2C6D58"/>
<path d="M53.491 137.894L8.64648 76.0665C30.9545 88.4197 110.889 30.6466 105.146 13.5142L141.18 81.0535C141.18 81.0535 139.142 85.2599 140.124 87.6968C141.399 90.8654 147.979 91.5426 147.979 91.5426L165.37 130.322C140.229 157.008 122.873 167.503 85.8468 177.698L60.2902 148.384C60.2902 148.384 63.2486 143.897 62.1857 141.196C60.8558 137.816 53.491 137.894 53.491 137.894Z" stroke="#2C6D58"/>
<path d="M105.147 13.5142C106.118 15.0127 105.888 17.3961 104.347 20.5739C102.825 23.7136 100.1 27.4624 96.4114 31.5387C89.0384 39.6858 77.8877 49.0595 65.0558 57.3773C52.2239 65.6951 39.1145 72.0471 28.6671 75.4513C23.4399 77.1546 18.9055 78.1111 15.4179 78.2189C11.8879 78.328 9.61823 77.565 8.64692 76.0665C7.67738 74.5708 7.92077 72.2156 9.48652 69.0775C11.0335 65.9771 13.7913 62.2805 17.5145 58.2559C24.9558 50.2124 36.1756 40.9423 49.0098 32.623C61.844 24.3037 74.8871 17.8464 85.2677 14.3375C90.4617 12.5818 94.9621 11.5736 98.4239 11.4272C101.928 11.2791 104.177 12.0185 105.147 13.5142Z" stroke="#2C6D58"/>
<path d="M93.0191 170.455L73.2359 146.354C106.029 132.651 120.49 122.707 143.999 100.493L157.806 131.41C146.927 141.722 137.912 148.979 128.036 154.907C118.157 160.837 107.398 165.449 93.0191 170.455Z" stroke="#2C6D58"/>
</svg>
