<svg width="1004" height="426" viewBox="0 0 1004 426" fill="none" xmlns="http://www.w3.org/2000/svg">
<rect y="0.00195312" width="1004" height="425.998" fill="#001811"/>
<rect x="14.0381" y="13.0723" width="479.248" height="395.985" fill="#2C6D58"/>
<path d="M25.8815 60.4562C28.1099 47.1323 31.8425 41.1087 42.1657 32.5C42.1657 32.5 52.332 37.7206 63.9385 44.0051C70.9681 47.8114 78.5261 52.0081 84.6735 55.6714C91.4267 59.6957 96.4776 63.0765 97.2558 64.5893C99.9116 69.7526 103.498 78.4506 103.498 78.4506L129.104 93.3663L131.619 93.1006L139.019 97.4111C141.016 98.5742 132.404 112.279 130.877 111.389L123.477 107.079L122.604 104.525L96.1081 91.1366C90.197 91.6868 87.9101 93.5974 80.9716 92.5454C79.0007 92.2466 73.7041 89.5282 67.1304 85.789C60.891 82.2399 53.5011 77.7712 46.7121 73.5789C35.4735 66.6389 25.8815 60.4562 25.8815 60.4562Z" fill="black" fill-opacity="0.25"/>
<path d="M122.604 104.525L96.1081 91.1366C90.197 91.6868 87.9101 93.5974 80.9716 92.5454C79.0007 92.2466 73.7041 89.5282 67.1304 85.789M122.604 104.525L129.104 93.3663M122.604 104.525L123.477 107.079L130.877 111.389C132.404 112.279 141.016 98.5742 139.019 97.4111C137.022 96.2479 131.619 93.1006 131.619 93.1006L129.104 93.3663M129.104 93.3663L103.498 78.4506C103.498 78.4506 99.9116 69.7526 97.2558 64.5893C96.4777 63.0765 91.4267 59.6957 84.6735 55.6714M84.6735 55.6714C76.0362 66.7186 72.0843 73.265 67.1304 85.789M84.6735 55.6714C78.5261 52.0081 70.9681 47.8114 63.9385 44.0051M67.1304 85.789C60.891 82.2399 53.5011 77.7712 46.7121 73.5789M46.7121 73.5789C35.4735 66.6389 25.8815 60.4562 25.8815 60.4562C28.1099 47.1323 31.8425 41.1087 42.1657 32.5C42.1657 32.5 52.332 37.7206 63.9385 44.0051M46.7121 73.5789C51.7266 61.0441 55.5277 54.5616 63.9385 44.0051" stroke="white" stroke-opacity="0.25" stroke-width="2"/>
<path d="M22.7467 348.177C23.7721 344.125 24.4185 341.64 27.0119 338.356C29.7045 334.946 32.1232 333.766 35.9834 331.759C40.8687 329.219 44.1095 328.697 49.5078 327.826L49.6612 327.802C56.8619 326.64 61.0838 327.055 68.3396 327.802C77.0155 328.694 90.1066 332.785 90.1066 332.785H99.6664L118.345 329.267L125.11 325.31C130.301 328.848 132.057 331.325 134.229 336.157L130.499 337.75C131.814 337.398 132.995 337.369 133.346 338.209C134.523 341.019 144.377 341.727 144.377 341.727C144.377 341.727 145.796 346.845 144.965 351.549H140.553L129.228 360.637C121.75 364.866 117.056 365.942 107.903 365.914C98.7487 365.886 101.336 371.201 97.7544 375.442C93.5177 380.46 90.1066 384.824 90.1066 384.824V400.508H85.1061C81.8667 393.288 82.1646 378.227 75.2521 380.279C68.3396 382.332 55.3971 380.279 44.5137 380.279C38.8185 380.279 35.0755 385.457 34.8068 391.127C34.6174 395.121 38.9248 400.508 38.9248 400.508H32.6007C32.6007 400.508 28.1371 392.357 28.3355 386.729C28.4515 383.44 29.8193 381.784 30.2475 378.52C31.8352 366.419 19.7524 360.011 22.7467 348.177Z" fill="black" fill-opacity="0.25"/>
<path d="M118.345 329.267L99.6664 332.785H90.1066C90.1066 332.785 77.0155 328.694 68.3396 327.802C61.0838 327.055 56.8619 326.64 49.6612 327.802C44.1706 328.687 40.9149 329.195 35.9834 331.759C32.1232 333.766 29.7045 334.946 27.0119 338.356C24.4185 341.64 23.7721 344.125 22.7467 348.177C19.7524 360.011 31.8352 366.419 30.2475 378.52C29.8193 381.784 28.4515 383.44 28.3355 386.729C28.1371 392.357 32.6007 400.508 32.6007 400.508H38.9248C38.9248 400.508 34.6174 395.121 34.8068 391.127C35.0755 385.457 38.8185 380.279 44.5137 380.279C55.3971 380.279 68.3396 382.332 75.2521 380.279C82.1646 378.227 81.8667 393.288 85.1061 400.508H90.1066V384.824C90.1066 384.824 93.5177 380.46 97.7544 375.442C101.336 371.201 98.7487 365.886 107.903 365.914C117.056 365.942 121.75 364.866 129.228 360.637L140.553 351.549H144.965C145.796 346.845 144.377 341.727 144.377 341.727C144.377 341.727 134.523 341.019 133.346 338.209C132.437 336.037 125.993 339.675 125.993 339.675L134.229 336.157C132.057 331.325 130.301 328.848 125.11 325.31L118.345 329.267ZM118.345 329.267C113.772 331.601 112.954 333.605 111.874 337.33" stroke="white" stroke-opacity="0.25" stroke-width="2"/>
<path d="M91.3926 383.358L98.0109 375.149C97.6721 385.117 98.7067 389.945 102.13 397.577H98.0109C94.8727 392.829 93.3056 389.882 91.3926 383.358Z" fill="black" fill-opacity="0.25" stroke="white" stroke-opacity="0.25" stroke-width="2" stroke-linecap="round"/>
<path d="M41.2402 397.577C39.3448 392.768 36.3867 385.41 36.3867 385.41C39.7 380.868 41.7822 380.22 47.8585 380.426C47.8585 380.426 43.2988 384.471 42.858 388.049C42.3679 392.026 46.6819 397.577 46.6819 397.577H41.2402Z" fill="black" fill-opacity="0.25" stroke="white" stroke-opacity="0.25" stroke-width="2"/>
<path d="M516.522 33.8486V13.0723L611.238 13.0723L612.996 63.5173H629.83C629.83 63.5173 630.829 79.5316 625.03 81.5511C623.124 82.2145 621.861 80.8751 619.959 81.5511C617.325 82.4873 617.225 86.9096 614.483 86.953C612.488 86.9846 609.886 84.2105 609.886 84.2105C609.886 84.2105 612.046 74.2973 608.601 72.9082C602.372 70.3964 599.755 67.3304 600.894 57.035C601.255 53.7794 595.59 53.9707 596.297 50.8021C596.961 47.8263 600.611 50.1509 602.247 47.8103C605.257 43.5024 601.154 42.1692 601.444 36.5008C601.717 31.1836 601.706 23.3773 603.125 21.2166C604.545 19.0559 596.448 30.418 594.134 37.5884C592.016 44.1503 596.297 45.982 591.497 55.3729C589.456 59.3667 594.134 67.0077 594.134 67.0077C594.979 71.1943 596.297 70.2488 596.297 77.7283C596.297 85.2078 591.091 73.628 587.306 72.9082C585.036 72.4766 581.424 72.9082 581.424 72.9082C581.424 72.9082 580.728 66.5334 578.585 67.0077C577.205 67.3128 577.471 69.673 576.151 70.2488C574 71.1867 572.582 68.7882 571.08 66.6753C566.713 60.5302 584.345 54.4299 579.666 48.6414C578.53 47.2357 577.327 47.3369 576.151 45.982C574.611 44.2085 575.183 41.5279 573.311 40.3308C571.625 39.2525 570.118 41.4378 568.444 40.3308C567.375 39.6241 566.464 39.0631 566.28 37.5884C566.06 35.8169 568.23 35.6213 568.444 33.8486C568.886 30.1848 562.58 32.814 561.683 29.2778C561.298 27.7596 561.947 26.7624 561.683 25.2057C561.204 22.386 560.297 20.6951 558.37 19.0559C555.418 16.5439 552.684 18.1155 549.176 19.0559C547.153 19.5982 546.24 21.3672 544.173 21.2166C542.401 21.0875 541.702 19.5948 539.982 19.0559C537.091 18.15 533.636 17.498 532.342 19.0559L529.03 23.0449C529.03 23.0449 526.412 24.1961 524.838 25.2057C522.123 26.9479 520.579 28.1114 518.483 30.8568C517.648 31.9507 516.522 33.8486 516.522 33.8486Z" fill="#2C6D58" fill-opacity="0.25" stroke="white" stroke-opacity="0.25" stroke-width="2"/>
<path d="M906.769 350.284L885.308 320.176C896.057 326.245 934.982 298.598 932.27 290.282L949.443 323.119C949.443 323.119 948.44 325.147 948.906 326.331C949.51 327.87 952.693 328.224 952.693 328.224L960.956 347.065C948.68 359.883 940.236 364.894 922.272 369.681L910.018 355.389C910.018 355.389 911.468 353.229 910.964 351.917C910.334 350.276 906.769 350.284 906.769 350.284Z" fill="#2C6D58" fill-opacity="0.25" stroke="white" stroke-opacity="0.25" stroke-width="2"/>
<path d="M932.475 290.151C934.628 293.535 925.335 303.59 912.818 311.558C900.301 319.526 887.257 323.689 885.103 320.306C882.95 316.923 892.372 307.071 904.89 299.103C917.407 291.135 930.321 286.768 932.475 290.151Z" fill="#2C6D58" fill-opacity="0.25"/>
<path d="M931.631 290.688C931.863 291.053 931.918 291.861 931.176 293.359C930.472 294.782 929.191 296.525 927.412 298.459C923.864 302.315 918.483 306.767 912.281 310.715C906.08 314.662 899.768 317.653 894.772 319.235C892.267 320.029 890.146 320.451 888.559 320.487C886.888 320.525 886.179 320.133 885.947 319.769C885.719 319.41 885.664 318.618 886.417 317.14C887.132 315.737 888.427 314.018 890.223 312.109C893.805 308.301 899.221 303.897 905.427 299.947C911.633 295.996 917.915 292.954 922.881 291.321C925.371 290.502 927.476 290.055 929.05 290.002C930.708 289.945 931.402 290.33 931.631 290.688Z" stroke="white" stroke-opacity="0.25" stroke-width="2"/>
<path d="M915.899 354.357C932.129 347.756 939.146 343.002 950.815 332.131L957.58 347.622C946.838 357.657 939.827 361.708 925.69 366.487L915.899 354.357Z" fill="white" fill-opacity="0.25"/>
<path d="M431.731 224.135C389.238 240.461 371.348 254.501 370.848 305.416C361.805 297.798 359.554 292.171 362.044 279.019C334.351 325.355 321.725 351.076 365.923 391.023C394.574 402.378 411.036 405.416 443.072 388.338C477.29 364.082 472.967 344.534 454.263 286.774C448.716 297.268 446.384 303.742 445.907 318.093C446.92 308.046 429.436 271.908 424.419 260.376C419.402 248.845 423.428 236.958 431.731 224.135ZM443.072 253.665C443.072 255.604 440.262 260.933 440.535 265.745C440.75 269.54 443.072 275.141 443.072 275.141C443.52 276.45 451.523 270.956 449.041 265.745C446.361 260.121 443.072 251.726 443.072 253.665ZM368.013 228.013C368.013 228.013 362.749 233.637 365.923 239.198C369.098 244.76 368.584 247.964 368.013 253.665C371.496 249.318 373.773 247.174 373.235 239.198C370.452 235.289 369.474 232.737 368.013 228.013ZM368.759 331.069C358.116 364.355 358.343 377.225 371.445 388.338C395.625 403.726 409.269 404.756 433.82 388.338C441.306 379.014 445.489 373.773 445.907 358.063C444.214 363.991 442.688 366.335 438.894 368.652C442.158 355.481 450.822 352.424 425.613 321.225C428.145 330.731 426.746 334.109 421.285 338.078C419.517 314.22 416.413 301.619 380.697 290.204C386.568 301.544 388.565 307.783 383.233 318.093C377.047 327.808 375.62 334.352 373.832 346.43C374.429 340.311 372.654 336.979 368.759 331.069ZM386.815 391.023C399.272 404.184 406.959 402.345 421.285 391.023C422.73 386.114 423.171 382.724 421.285 372.082L423.225 362.984C419.123 364.629 417.326 366.99 414.869 373.275C412.82 363.707 411.061 358.224 402.931 347.474C400.737 354.615 396.369 360.509 386.815 372.082C382.869 381.726 383.948 385.258 386.815 391.023Z" stroke="white" stroke-opacity="0.7"/>
</svg>
