<svg width="52" height="52" viewBox="0 0 52 52" fill="none" xmlns="http://www.w3.org/2000/svg">
<path d="M35.9665 12.61C34.4858 10.919 33.6696 8.7477 33.6698 6.5H26.9748V33.3667C26.9243 34.8209 26.3108 36.1987 25.2638 37.2092C24.2169 38.2198 22.8183 38.7842 21.3632 38.7833C18.2865 38.7833 15.7299 36.27 15.7299 33.15C15.7299 29.4233 19.3265 26.6283 23.0315 27.7767V20.93C15.5565 19.9333 9.01318 25.74 9.01318 33.15C9.01318 40.365 14.9932 45.5 21.3415 45.5C28.1448 45.5 33.6698 39.975 33.6698 33.15V19.5217C36.3847 21.4713 39.6441 22.5174 42.9865 22.5117V15.8167C42.9865 15.8167 38.9132 16.0117 35.9665 12.61Z" fill="white"/>
</svg>
