<svg width="52" height="52" viewBox="0 0 52 52" fill="none" xmlns="http://www.w3.org/2000/svg">
<path d="M13.6105 32.8087L16.0025 32.2562L16.2397 32.1912C16.6511 32.0809 17.0297 31.8728 17.3432 31.5846C17.6568 31.2965 17.8961 30.9368 18.0407 30.5362C18.1853 30.1356 18.2309 29.706 18.1737 29.284C18.1164 28.862 17.958 28.4601 17.712 28.1125C17.4461 27.7708 17.1146 27.4857 16.737 27.274C16.2909 27.0233 15.8258 26.8081 15.346 26.6305L12.72 25.6717C11.2474 25.1235 9.76969 24.5894 8.28696 24.0695C7.32171 23.725 6.49947 23.426 5.79422 23.205C5.66097 23.1627 5.51147 23.1237 5.39122 23.0815C4.75686 22.8595 4.0932 22.7325 3.42172 22.7045C3.07203 22.6897 2.72348 22.7536 2.40175 22.8914C2.08003 23.0292 1.79331 23.2374 1.56272 23.5007C1.44298 23.6388 1.32913 23.782 1.22147 23.9297C1.01777 24.2453 0.84887 24.582 0.717715 24.934C0.230215 26.3737 -0.0135347 27.885 0.00271534 29.406C0.00921534 30.7807 0.0449653 32.5455 0.802215 33.7415C0.984564 34.0477 1.22794 34.3132 1.51722 34.5215C2.05672 34.892 2.59947 34.9407 3.16497 34.9797C4.00997 35.0415 4.83222 34.8335 5.64797 34.645L13.6007 32.8055L13.6105 32.8087ZM40.3222 20.098C39.6678 18.7269 38.789 17.4747 37.7222 16.393C37.4498 16.1338 37.1502 15.905 36.8285 15.7105C36.6693 15.6246 36.5067 15.5455 36.341 15.4732C36.0184 15.3381 35.6697 15.2771 35.3204 15.2945C34.9711 15.3119 34.6302 15.4074 34.3227 15.574C33.8612 15.8015 33.3672 16.1655 32.7107 16.7765C32.6197 16.8675 32.506 16.9715 32.4052 17.0657C31.8625 17.5727 31.258 18.2032 30.5397 18.9345C29.4347 20.0525 28.3405 21.1813 27.2572 22.321L25.3137 24.336C24.9603 24.7054 24.6364 25.102 24.3452 25.5222C24.0979 25.8785 23.9244 26.2808 23.835 26.7052C23.7806 27.0298 23.7883 27.3618 23.8577 27.6835C23.8577 27.6986 23.861 27.7127 23.8675 27.7257C24.0187 28.3932 24.424 28.9755 24.9973 29.3492C25.5706 29.7229 26.267 29.8587 26.9387 29.7277L27.1792 29.6822L37.5305 27.2902C38.3462 27.1017 39.175 26.9262 39.9095 26.5037C40.4002 26.2177 40.8682 25.935 41.19 25.3662C41.3596 25.0515 41.4625 24.7052 41.4922 24.349C41.6547 22.9385 40.9137 21.3362 40.3222 20.098ZM21.794 24.4497C22.5415 23.5072 22.5415 22.1032 22.6065 20.956C22.834 17.1177 23.0712 13.2795 23.2597 9.44121C23.3312 7.98521 23.4872 6.54871 23.4027 5.08621C23.3312 3.87721 23.3215 2.48946 22.5577 1.49821C21.2155 -0.250289 18.3425 -0.107289 16.3795 0.162461C15.7771 0.244794 15.178 0.357461 14.5822 0.500461C13.9885 0.64112 13.3999 0.802636 12.8175 0.984711C10.9325 1.60221 8.29022 2.72996 7.84496 4.89771C7.59146 6.12296 8.18947 7.37746 8.65422 8.49546C9.21646 9.85071 9.98672 11.0695 10.6855 12.3467C12.538 15.7137 14.423 19.0612 16.3015 22.412C16.8605 23.413 17.4715 24.6772 18.5602 25.1972C18.6317 25.2297 18.7054 25.2568 18.7812 25.2785C19.2687 25.4637 19.7985 25.4995 20.3055 25.3825L20.3965 25.3597C20.8655 25.2341 21.2899 24.9796 21.6217 24.6252L21.794 24.4497ZM20.897 34.723C20.5664 34.2634 20.0844 33.9352 19.5357 33.7961C18.987 33.657 18.4068 33.7159 17.8972 33.9625C17.7321 34.0464 17.5744 34.1442 17.426 34.255C17.0049 34.5904 16.6272 34.9769 16.3015 35.4055C16.217 35.5127 16.139 35.6557 16.0415 35.7435L14.3775 38.0347C13.435 39.3152 12.5022 40.6076 11.5792 41.912C10.978 42.757 10.4547 43.4687 10.0452 44.0992L9.81122 44.4567C9.31721 45.2205 9.03771 45.7762 8.89472 46.2735C8.785 46.6018 8.75165 46.9508 8.79722 47.294C8.83947 47.6515 8.95971 47.9992 9.14822 48.308C9.24788 48.4596 9.35621 48.6091 9.47322 48.7565C9.72266 49.0429 10.0028 49.3012 10.3085 49.5267C12.4302 50.9607 14.8912 51.8124 17.4455 51.9967C17.8256 52.009 18.206 51.9796 18.5797 51.909C18.7584 51.8645 18.9352 51.8124 19.1095 51.753C19.4476 51.625 19.7553 51.428 20.013 51.1745C20.2606 50.9321 20.4495 50.6364 20.5655 50.31C20.7572 49.8322 20.884 49.2212 20.9652 48.3177L21.0042 47.8952C21.0692 47.1445 21.1017 46.2637 21.1505 45.227C21.2306 43.6345 21.2956 42.043 21.3455 40.4527L21.4527 37.6252C21.4945 36.9452 21.4343 36.2627 21.274 35.6005C21.1912 35.2908 21.0663 34.9951 20.897 34.723ZM39.6917 39.1495C39.2135 38.665 38.6684 38.2513 38.0732 37.921L37.7092 37.7032C37.0625 37.3132 36.2857 36.9037 35.3725 36.4097C33.9771 35.6449 32.5742 34.892 31.1637 34.151L28.671 32.8282C28.541 32.7892 28.411 32.6982 28.2875 32.6365C27.8069 32.3946 27.2982 32.2134 26.773 32.097C26.5908 32.0617 26.406 32.0422 26.2205 32.0385C25.655 32.0419 25.1089 32.2445 24.678 32.6106C24.2471 32.9768 23.959 33.483 23.8642 34.0405C23.8282 34.3577 23.8392 34.6786 23.8967 34.9927C24.0202 35.6557 24.3192 36.3122 24.6247 36.8875L25.9572 39.3835C26.696 40.7918 27.45 42.1936 28.2192 43.589C28.7132 44.499 29.1292 45.279 29.5127 45.9257C29.5907 46.0492 29.6644 46.1705 29.7337 46.2897C30.205 47.0665 30.582 47.5572 30.9655 47.905C31.2192 48.1513 31.5249 48.3379 31.86 48.4509C32.1951 48.5639 32.5513 48.6006 32.9025 48.5582C33.0857 48.5346 33.2679 48.5031 33.4485 48.464C33.8148 48.3632 34.169 48.2226 34.5047 48.0447C35.5198 47.4787 36.4544 46.7791 37.2835 45.9647C38.278 44.9897 39.1587 43.9172 39.8445 42.6952C39.942 42.5219 40.0243 42.3431 40.0915 42.159C40.1541 41.987 40.2094 41.8124 40.2572 41.6357C40.2984 41.4559 40.3298 41.2739 40.3515 41.0897C40.3844 40.7307 40.3424 40.3688 40.228 40.027C40.1185 39.6974 39.9351 39.3972 39.6917 39.1495Z" fill="white"/>
</svg>
